<?xml version="1.0" standalone="no"?>
<!DOCTYPE svg PUBLIC "-//W3C//DTD SVG 20010904//EN"
 "http://www.w3.org/TR/2001/REC-SVG-20010904/DTD/svg10.dtd">
<svg version="1.0" xmlns="http://www.w3.org/2000/svg"
 width="675.000000pt" height="675.000000pt" viewBox="0 0 675.000000 675.000000"
 preserveAspectRatio="xMidYMid meet">
<metadata>
Created by potrace 1.14, written by Peter Selinger 2001-2017
</metadata>
<g transform="translate(0.000000,675.000000) scale(0.100000,-0.100000)"
fill="#000000" stroke="none">
<path d="M5460 6733 c0 -7 -6 -13 -13 -13 -14 0 -287 -271 -288 -286 -9 -119
-156 -453 -376 -851 -72 -132 -87 -150 -128 -159 -37 -8 -76 -15 -115 -20 -25
-3 -58 -9 -75 -13 -16 -4 -74 -9 -129 -10 -80 -2 -97 0 -90 11 4 7 -3 4 -15
-7 -12 -11 -22 -15 -21 -10 5 21 -1 29 -10 15 -8 -13 -10 -12 -10 3 0 9 -5 17
-11 17 -5 0 -7 -4 -4 -10 3 -5 0 -7 -9 -4 -8 3 -13 16 -11 30 2 21 0 22 -14
12 -32 -24 -301 -298 -301 -307 0 -4 7 -14 15 -21 8 -7 12 -17 8 -23 -3 -6 -1
-7 5 -3 6 4 9 14 6 24 -2 9 1 7 7 -5 8 -16 21 -23 41 -23 15 0 28 -4 28 -8 0
-5 15 -7 33 -5 38 4 44 4 77 0 14 -2 30 -1 35 2 6 3 21 6 35 7 24 1 79 9 145
21 17 3 40 7 52 8 13 1 26 5 30 8 3 4 16 7 27 7 12 0 54 9 94 19 39 10 72 16
72 14 0 -2 -45 -92 -99 -201 -113 -226 -172 -354 -242 -529 -42 -106 -146
-401 -154 -436 -1 -7 -4 -19 -8 -27 -6 -17 -67 -246 -72 -270 -2 -8 -8 -33
-13 -55 -6 -22 -13 -52 -16 -68 -3 -15 -7 -35 -10 -45 -3 -9 -7 -28 -10 -42
-3 -14 -7 -36 -10 -50 -3 -13 -8 -40 -11 -60 -3 -20 -7 -45 -9 -57 -6 -27 -17
-91 -22 -123 -2 -14 -5 -42 -5 -62 -1 -21 -4 -38 -8 -38 -3 0 -7 -44 -9 -97
-2 -62 -7 -100 -15 -105 -9 -6 -9 -8 1 -8 8 0 11 -11 9 -35 -3 -20 -1 -38 4
-41 4 -2 5 -14 1 -24 -11 -30 -2 -101 12 -93 6 4 5 -1 -3 -10 -11 -14 -11 -17
0 -17 10 0 10 -3 1 -12 -9 -9 -8 -16 4 -29 10 -11 12 -19 5 -23 -6 -4 -8 -13
-5 -21 4 -8 11 -12 18 -8 6 4 5 -1 -3 -10 -12 -16 -8 -22 12 -18 5 1 6 -3 2
-9 -9 -15 17 -91 30 -86 8 3 11 -5 9 -20 -3 -27 5 -30 26 -11 12 10 12 9 3 -3
-12 -18 -13 -51 -1 -44 5 3 5 10 2 16 -4 7 -2 8 5 4 6 -4 9 -12 6 -17 -4 -5
-1 -9 5 -9 6 0 8 -4 5 -10 -3 -6 1 -10 9 -10 15 0 21 -12 17 -33 -1 -5 3 -6 8
-3 5 4 15 1 23 -6 18 -17 32 -20 110 -21 124 -1 230 69 452 301 116 121 121
139 22 72 -32 -22 -77 -45 -99 -51 -54 -14 -129 -20 -122 -10 3 5 -11 8 -31 7
-20 -1 -38 3 -41 8 -4 5 -1 6 7 1 9 -6 11 -4 6 4 -5 7 -14 10 -22 7 -8 -3 -13
-2 -12 2 3 11 -25 52 -36 52 -5 0 -2 -8 7 -18 10 -10 17 -22 17 -26 0 -4 -11
6 -24 21 -19 22 -22 31 -13 42 10 12 9 13 -7 8 -16 -7 -17 -5 -5 9 11 14 10
15 -7 12 -14 -2 -19 2 -17 17 2 27 -16 57 -29 49 -7 -5 -8 -2 -3 7 12 18 14
49 3 43 -4 -3 -8 2 -8 11 0 10 -5 13 -12 9 -10 -6 -10 -5 -1 7 10 12 10 18 1
27 -7 7 -11 28 -10 48 2 27 0 34 -10 28 -10 -6 -9 -3 1 9 11 14 11 17 0 17
-12 0 -12 2 0 9 9 6 10 10 2 16 -9 5 -9 10 0 21 6 8 7 14 2 14 -11 0 -10 50 1
69 6 9 5 12 -1 8 -7 -4 -10 5 -9 23 0 17 5 30 10 30 4 0 3 6 -3 13 -6 8 -8 17
-4 21 11 10 10 66 0 66 -6 0 -5 5 0 13 6 6 11 35 13 62 3 56 8 100 10 100 1 0
3 11 5 25 11 75 14 97 19 117 2 11 8 43 12 70 4 26 11 59 16 73 6 14 12 39 13
55 2 17 6 41 10 55 3 14 8 34 10 45 3 11 7 30 10 43 3 12 7 30 9 40 2 9 16 60
30 112 15 52 29 104 31 114 5 22 24 84 32 106 3 8 7 20 8 25 2 6 25 75 52 155
63 185 157 409 241 581 72 144 67 139 159 154 75 12 110 36 246 174 75 77 137
144 137 151 0 6 -4 9 -8 6 -5 -3 -22 -8 -38 -10 -58 -11 -74 -15 -82 -20 -5
-3 -24 -8 -43 -11 -19 -3 -60 -13 -93 -21 -32 -8 -60 -13 -63 -10 -5 4 51 112
190 366 239 438 414 838 386 881 -6 10 -9 11 -9 2z m-1536 -4259 c3 -8 2 -12
-4 -9 -6 3 -10 10 -10 16 0 14 7 11 14 -7z"/>
<path d="M3918 6555 c-4 -4 -88 -16 -125 -18 -7 0 -13 -3 -13 -7 0 -3 -10 -6
-22 -6 -34 -1 -79 -11 -113 -24 -16 -6 -30 -11 -30 -10 0 5 -108 -31 -180 -60
-175 -69 -418 -219 -575 -355 -128 -110 -396 -381 -477 -482 -94 -117 -163
-250 -179 -343 -9 -51 -12 -160 -5 -156 4 3 8 -1 8 -9 0 -8 -4 -12 -8 -10 -3
3 -6 -3 -5 -13 0 -9 7 -21 14 -25 9 -6 9 -13 2 -27 -8 -16 -8 -18 4 -14 11 4
13 0 9 -17 -4 -14 -2 -20 4 -16 7 5 9 0 6 -13 -3 -12 2 -27 14 -37 10 -10 13
-14 6 -9 -10 6 -12 4 -7 -8 3 -9 10 -16 15 -16 5 0 8 -3 8 -7 -4 -22 2 -33 14
-27 7 5 6 1 -2 -10 -13 -16 -13 -17 4 -14 10 1 20 -4 22 -12 4 -13 3 -13 -7 0
-9 13 -10 12 -7 -5 2 -11 9 -19 16 -17 9 2 9 -3 0 -20 -6 -13 -8 -20 -4 -16 4
4 14 0 22 -10 13 -15 13 -15 3 6 -6 12 -8 22 -6 22 11 0 32 -56 30 -78 -1 -16
2 -20 11 -12 13 11 25 4 25 -14 0 -6 -5 -4 -11 4 -8 12 -10 11 -7 -5 2 -11 8
-20 15 -20 6 0 15 -4 20 -9 5 -5 3 -6 -4 -2 -16 9 -17 0 -3 -17 6 -7 18 -21
26 -32 9 -11 12 -14 8 -6 -5 10 -3 12 5 7 9 -6 9 -11 0 -22 -10 -12 -9 -13 5
-8 11 4 16 2 14 -7 -2 -8 2 -13 9 -12 8 2 10 -4 6 -14 -5 -12 -3 -14 8 -8 12
8 12 6 1 -8 -12 -14 -11 -16 7 -12 19 3 20 2 9 -18 -11 -21 -10 -21 7 -7 10 8
16 10 12 3 -8 -12 68 -133 83 -133 6 0 10 -7 10 -16 0 -9 5 -12 13 -8 8 5 7 2
-2 -9 -12 -15 -12 -17 1 -12 20 8 55 -41 52 -72 -1 -12 3 -20 8 -17 4 3 6 11
2 17 -3 7 3 1 14 -12 11 -14 17 -31 14 -40 -3 -8 -1 -12 5 -8 6 4 17 -1 24
-11 12 -15 12 -16 -2 -5 -9 7 -19 10 -22 6 -4 -3 9 -17 28 -30 24 -16 32 -28
28 -40 -4 -10 -2 -14 5 -9 6 3 14 1 18 -5 5 -8 3 -9 -6 -4 -8 5 -11 3 -8 -6 3
-8 10 -13 16 -12 7 2 9 -4 5 -14 -4 -11 -3 -14 5 -9 8 5 10 1 5 -10 -5 -13 -3
-15 8 -9 12 7 12 6 1 -7 -11 -14 -10 -17 6 -22 11 -4 19 -14 18 -24 0 -9 5
-16 12 -14 10 2 10 -2 1 -20 -11 -20 -10 -21 3 -11 12 11 14 9 14 -10 -1 -12
4 -21 11 -20 7 2 10 -8 8 -28 -4 -25 -2 -29 9 -20 10 9 15 8 20 -5 4 -9 4 -19
1 -22 -3 -3 -5 1 -5 8 0 7 -2 11 -5 8 -9 -9 17 -58 27 -51 6 3 5 -5 -2 -17 -8
-15 -8 -20 -1 -16 6 4 11 0 11 -10 0 -10 7 -26 17 -36 9 -10 17 -30 19 -45 1
-16 2 -32 3 -36 1 -5 5 -6 9 -3 5 3 9 -1 9 -9 0 -8 -5 -11 -11 -8 -6 3 -5 0 2
-8 6 -7 12 -21 12 -32 0 -11 4 -15 12 -11 8 5 9 2 4 -11 -4 -11 0 -26 11 -39
17 -20 17 -20 -1 -6 -18 14 -19 14 -8 -6 6 -12 8 -24 5 -28 -3 -3 1 -6 10 -6
10 0 17 -5 17 -11 0 -5 -4 -8 -9 -5 -5 4 -7 -3 -4 -14 3 -11 9 -23 14 -26 5
-3 9 -11 9 -17 0 -7 -4 -6 -11 3 -9 12 -9 11 -4 -5 5 -11 10 -32 13 -47 2 -16
9 -28 16 -28 6 0 5 -4 -3 -9 -13 -8 -13 -12 0 -27 8 -9 13 -26 11 -36 -2 -11
2 -27 10 -36 9 -11 10 -14 1 -8 -7 4 -13 2 -13 -3 0 -6 4 -11 10 -11 6 0 6 -9
0 -26 -8 -20 -7 -25 2 -21 10 3 12 -7 9 -40 -2 -31 1 -48 10 -54 8 -5 9 -9 3
-9 -10 0 -12 -108 -2 -126 3 -5 4 -20 3 -34 -1 -14 2 -33 7 -44 8 -14 7 -17
-3 -11 -8 6 -11 4 -6 -7 3 -9 1 -20 -5 -26 -7 -7 -8 -16 -1 -24 11 -15 11 -48
0 -65 -4 -6 -3 -14 3 -18 6 -4 7 -11 4 -17 -4 -5 -8 -33 -11 -62 -4 -54 -10
-108 -19 -166 -2 -19 -5 -45 -6 -57 -1 -13 -5 -23 -8 -23 -3 0 -6 -10 -7 -22
-1 -35 -10 -73 -43 -188 -36 -122 -35 -119 -45 -145 -4 -11 -24 -60 -43 -110
-76 -196 -222 -451 -370 -650 -187 -250 -302 -362 -527 -512 -194 -130 -424
-215 -554 -205 -14 1 -30 -3 -37 -9 -8 -7 -14 -7 -19 0 -3 6 -16 10 -28 10
-28 -1 -54 5 -63 14 -4 3 -16 2 -27 -4 -15 -9 -18 -8 -12 1 6 10 1 12 -19 8
-17 -4 -29 0 -35 10 -5 9 -16 13 -30 9 -14 -3 -24 0 -28 9 -3 9 -13 13 -27 9
-11 -2 -15 -2 -8 1 18 9 14 20 -8 21 -13 1 -18 -2 -14 -9 4 -7 2 -8 -5 -4 -8
5 -9 12 -2 20 7 8 4 12 -10 13 -12 1 -17 -3 -13 -9 5 -7 2 -8 -5 -4 -7 5 -10
14 -7 22 4 11 1 12 -13 4 -14 -7 -22 -5 -32 8 -13 15 -12 16 3 3 12 -8 18 -9
18 -2 0 6 -11 13 -25 17 -15 4 -22 11 -18 18 3 7 1 6 -7 -1 -11 -10 -17 -9
-32 4 -10 9 -18 23 -18 31 0 8 -6 12 -13 9 -7 -3 -21 1 -32 9 -10 8 -14 14 -9
14 6 0 15 -5 21 -11 8 -8 13 -8 18 0 3 6 3 11 -2 10 -14 -3 -43 13 -43 23 0
12 -30 37 -45 38 -5 0 -3 -5 5 -10 8 -5 10 -10 4 -10 -6 0 -18 8 -25 17 -10
11 -10 14 -1 9 6 -4 12 -2 12 3 0 10 -13 15 -31 13 -3 -1 -5 10 -3 24 1 13 -2
22 -7 19 -4 -3 -14 3 -21 15 -7 11 -17 20 -22 20 -5 0 3 -15 20 -33 l29 -32
-38 34 c-36 34 -47 48 -27 36 16 -10 12 12 -6 29 -8 9 -19 14 -24 11 -4 -3 -6
4 -3 15 3 12 0 20 -6 20 -7 0 -9 -6 -5 -12 4 -8 3 -9 -2 -5 -5 5 -9 16 -9 25
0 9 -5 16 -11 15 -6 -1 -10 9 -9 22 2 15 -1 22 -9 19 -7 -3 -13 2 -14 11 -1 8
-3 22 -4 30 -1 8 -5 12 -10 9 -11 -7 -38 14 -38 29 0 6 7 2 15 -9 8 -10 15
-13 15 -7 0 7 -14 25 -31 40 -28 25 -29 28 -13 40 10 7 13 13 7 13 -7 0 -15 9
-18 20 -4 11 -10 18 -14 16 -3 -3 -6 11 -6 30 1 27 -1 31 -12 22 -11 -9 -12
-7 -7 7 5 11 4 16 -3 12 -5 -3 -10 0 -10 8 0 8 5 12 10 8 5 -3 3 5 -3 18 -7
13 -13 36 -12 51 0 15 -3 28 -8 28 -5 0 -6 7 -3 17 4 9 2 14 -3 10 -5 -3 -8
11 -6 33 2 21 -1 41 -7 44 -6 4 -8 14 -3 24 7 15 7 26 3 55 -2 12 -23 -7 -170
-153 -129 -129 -136 -137 -138 -178 -2 -32 1 -41 10 -36 9 5 9 4 0 -7 -14 -14
-18 -33 -5 -25 11 7 9 -48 -3 -56 -6 -5 -5 -8 3 -8 6 0 12 -8 12 -18 0 -10 6
-24 13 -31 7 -9 8 -12 0 -7 -7 4 -9 -1 -6 -14 3 -11 10 -17 15 -14 6 4 7 -2 3
-15 -4 -15 -1 -29 11 -42 11 -12 13 -19 5 -19 -7 0 -9 -5 -6 -10 4 -6 12 -7
18 -4 7 4 9 4 5 -1 -4 -4 -2 -15 5 -23 6 -9 7 -13 2 -10 -6 4 -11 -2 -11 -12
0 -14 3 -16 13 -8 11 8 12 7 7 -7 -5 -13 -4 -16 4 -11 16 10 15 -7 0 -23 -11
-10 -10 -11 3 -6 10 4 20 1 25 -6 4 -8 3 -10 -4 -5 -9 5 -9 1 -3 -16 5 -13 14
-22 21 -20 6 1 8 -3 4 -9 -4 -7 1 -18 10 -25 10 -7 17 -16 17 -21 -2 -21 12
-43 26 -43 12 0 13 -3 4 -14 -10 -12 -8 -14 11 -9 18 4 20 3 8 -6 -13 -9 -12
-11 4 -11 16 0 17 -3 8 -12 -7 -7 -12 -16 -12 -22 0 -6 5 -5 12 2 9 9 16 8 30
-5 10 -9 18 -20 18 -26 0 -5 -9 1 -21 14 l-20 24 17 -27 c9 -16 21 -28 26 -28
5 0 6 -5 2 -12 -5 -7 -2 -9 8 -5 18 6 53 -26 53 -48 0 -8 17 -32 38 -55 20
-22 37 -37 37 -33 0 4 -15 23 -32 42 l-33 35 41 -34 c23 -19 41 -37 41 -40 2
-24 4 -30 14 -30 5 0 7 6 3 13 -4 6 2 3 14 -7 24 -20 31 -36 9 -17 -10 8 -14
7 -14 -3 0 -9 9 -13 24 -11 13 1 21 0 19 -3 -9 -8 48 -52 62 -47 7 2 12 -3 12
-14 0 -10 7 -18 15 -18 9 0 12 5 7 12 -4 6 0 3 10 -7 18 -20 33 -24 22 -6 -4
7 -3 8 5 4 9 -6 9 -11 -1 -24 -12 -13 -10 -14 9 -3 20 10 22 9 16 -6 -6 -16
-5 -17 12 -3 13 10 16 11 11 2 -5 -9 -1 -15 13 -19 11 -3 18 -10 14 -16 -4 -6
-1 -7 7 -2 10 6 9 11 -5 22 -11 7 -14 13 -8 13 6 0 16 -7 23 -16 19 -22 55
-40 45 -22 -3 7 0 6 7 -4 11 -12 18 -14 32 -6 14 8 17 7 12 -1 -7 -10 19 -16
53 -12 7 2 10 -2 7 -7 -8 -13 27 -10 36 3 5 6 8 6 8 -2 0 -12 17 -12 36 0 6 3
14 3 18 -1 11 -10 66 -10 66 0 0 5 8 4 18 -1 11 -6 23 -6 28 -2 5 5 27 11 49
14 22 3 54 11 70 17 17 7 37 13 46 15 57 12 246 111 349 183 198 139 350 271
599 522 420 424 688 805 856 1220 47 118 99 279 111 345 3 22 9 44 12 49 5 8
12 58 15 99 1 9 4 17 7 17 3 0 6 15 7 33 1 43 12 118 18 128 3 4 1 11 -5 14
-8 5 -7 11 1 21 6 8 9 14 7 14 -3 0 -2 20 2 45 4 25 3 48 -2 51 -4 3 -4 13 0
22 4 9 7 40 7 69 -1 35 2 50 9 46 6 -4 5 0 -2 9 -6 8 -12 26 -11 39 3 85 -4
161 -13 148 -9 -14 -7 -3 9 55 4 13 1 16 -7 11 -9 -5 -10 -1 -5 15 4 12 3 20
-1 17 -5 -3 -8 15 -7 39 0 26 -3 44 -10 44 -8 0 -8 3 0 11 13 13 6 42 -7 34
-5 -3 -5 8 0 25 6 19 5 32 -2 36 -7 5 -8 2 -3 -7 5 -8 5 -11 0 -7 -4 4 -10 29
-12 55 -2 26 -9 50 -16 55 -6 4 -8 8 -3 8 5 0 2 8 -5 17 -12 15 -12 16 1 8 12
-6 12 -5 3 5 -6 7 -9 19 -6 28 4 9 2 13 -4 9 -7 -5 -9 1 -5 15 3 13 1 19 -5
15 -6 -4 -8 3 -5 18 3 16 0 25 -8 25 -9 0 -9 4 1 17 12 14 12 16 0 8 -11 -6
-13 -3 -8 14 3 13 3 20 0 17 -8 -8 -33 13 -33 28 0 6 5 4 10 -4 8 -13 10 -13
10 2 0 9 -8 24 -17 34 -10 10 -19 21 -19 26 -1 4 -3 11 -4 16 -6 14 -8 27 -9
55 0 15 -6 27 -12 27 -5 0 -7 -4 -4 -10 3 -5 1 -10 -5 -10 -7 0 -9 8 -5 20 3
11 3 20 -2 20 -5 0 -10 12 -11 26 -2 31 -11 46 -22 39 -4 -3 -6 4 -3 14 3 14
-2 21 -19 27 -22 7 -22 7 -3 14 19 7 18 9 -7 19 -16 6 -28 13 -28 16 0 4 5 3
10 0 6 -3 10 1 10 10 0 11 -5 15 -14 12 -10 -4 -12 0 -9 14 4 13 -2 22 -18 28
-13 5 -19 10 -12 10 17 1 4 31 -13 31 -20 0 -34 32 -23 52 11 19 -5 35 -17 17
-5 -8 -3 -9 6 -4 9 5 11 4 6 -4 -13 -21 -27 -1 -14 22 10 19 9 20 -4 9 -12
-10 -17 -10 -25 0 -20 27 -24 42 -4 18 11 -14 21 -20 20 -15 0 15 -25 45 -37
45 -6 0 -14 5 -18 12 -4 7 -3 8 4 4 7 -4 12 -2 12 3 0 6 -4 11 -9 11 -8 0 -24
37 -22 51 0 4 -10 5 -22 2 -18 -4 -19 -3 -7 6 13 9 12 11 -5 11 -17 0 -17 2
-5 10 13 8 13 10 -2 10 -9 0 -20 5 -24 12 -4 6 -3 8 3 5 5 -3 9 2 8 11 -1 17
-16 25 -25 15 -3 -4 1 -3 9 2 10 6 12 4 7 -4 -12 -18 -34 5 -31 32 2 14 -5 28
-17 36 -18 11 -18 11 -2 -16 l16 -28 -20 25 c-11 13 -19 28 -16 31 6 11 -7 39
-18 39 -6 0 -4 -8 3 -17 13 -16 12 -17 -4 -4 -11 9 -14 18 -8 25 5 7 -1 20
-16 36 l-25 25 17 -30 17 -30 -20 25 c-14 16 -17 28 -11 36 6 8 4 14 -6 18
-11 4 -14 2 -9 -6 4 -7 3 -8 -5 -4 -14 9 -46 68 -43 80 2 4 -2 14 -8 20 -5 7
-7 15 -4 18 2 3 -2 8 -10 11 -11 4 -13 1 -9 -11 3 -9 3 -14 -1 -10 -7 5 -13
33 -18 75 -1 7 -5 10 -10 7 -5 -3 -5 -10 -2 -16 4 -7 2 -8 -4 -4 -6 4 -8 14
-5 23 5 12 3 14 -7 8 -8 -5 -11 -4 -6 3 3 6 1 23 -5 38 -8 23 -12 26 -20 14
-8 -11 -9 -9 -4 9 6 18 4 22 -6 15 -10 -6 -10 -3 1 11 14 17 13 18 -2 12 -13
-4 -15 -2 -11 10 5 12 3 14 -8 8 -11 -6 -11 -5 -3 4 9 10 8 19 -2 39 -8 15
-14 33 -14 40 0 7 -4 11 -9 8 -5 -4 -7 3 -4 14 3 11 1 20 -4 20 -6 0 -10 12
-11 28 0 15 -1 29 -2 32 -4 12 -11 46 -11 55 0 100 47 249 105 337 22 35 68
84 101 111 131 106 358 231 521 288 97 34 92 32 149 44 22 4 46 12 53 18 6 5
12 7 12 4 0 -3 19 0 43 5 108 25 327 27 366 4 5 -3 12 0 14 6 3 8 6 6 6 -4 1
-10 6 -18 12 -18 5 0 7 6 3 13 -6 9 -5 9 8 0 8 -7 19 -9 23 -5 5 4 4 1 0 -7
-6 -11 -4 -13 7 -8 20 7 38 -11 31 -31 -4 -9 -2 -13 5 -9 18 12 -8 -65 -31
-90 -25 -28 -16 -41 13 -20 56 39 279 269 309 317 22 37 28 94 11 105 -6 4 -7
11 -4 17 4 6 2 8 -3 5 -6 -4 -16 0 -23 8 -7 8 -17 15 -23 15 -6 0 4 -14 23
-31 l35 -30 -37 26 c-21 15 -38 34 -38 43 0 12 -3 13 -12 4 -15 -15 -32 -16
-23 -2 5 9 -15 15 -37 11 -5 0 -8 4 -8 9 0 7 -6 7 -20 0 -11 -6 -20 -7 -20 -2
0 13 -34 11 -42 -2 -6 -8 -8 -8 -8 0 0 6 -13 11 -30 11 -16 0 -30 -5 -30 -11
0 -7 -3 -7 -8 -1 -8 11 -27 17 -34 10z m-964 -2001 c3 -8 2 -12 -4 -9 -6 3
-10 10 -10 16 0 14 7 11 14 -7z m-364 -184 c6 -11 8 -20 6 -20 -3 0 -10 9 -16
20 -6 11 -8 20 -6 20 3 0 10 -9 16 -20z m-2206 -3646 c3 -8 2 -12 -4 -9 -6 3
-10 10 -10 16 0 14 7 11 14 -7z m357 -381 c13 -16 12 -17 -3 -4 -10 7 -18 15
-18 17 0 8 8 3 21 -13z"/>
<path d="M3930 6190 c0 -5 5 -10 11 -10 5 0 7 5 4 10 -3 6 -8 10 -11 10 -2 0
-4 -4 -4 -10z"/>
<path d="M6073 5301 c-64 -48 -278 -273 -316 -332 -35 -57 -69 -129 -125 -269
-35 -89 -44 -112 -48 -125 -4 -14 -92 -232 -114 -280 -30 -68 -190 -484 -190
-495 0 -6 -5 -18 -10 -28 -6 -9 -41 -96 -79 -192 -86 -216 -105 -259 -192
-432 -37 -76 -64 -138 -59 -138 5 0 74 64 153 143 160 159 170 173 284 422 40
88 79 161 87 163 10 2 13 -3 9 -17 -3 -12 -1 -21 6 -21 6 0 11 -9 11 -21 0
-12 4 -17 11 -13 7 4 6 -2 -2 -17 -11 -22 -11 -23 5 -10 14 12 16 12 10 -3 -4
-10 1 -25 11 -36 9 -10 14 -24 10 -29 -3 -6 -1 -11 5 -11 6 0 8 -5 4 -12 -5
-8 0 -7 11 2 11 9 16 10 11 2 -9 -16 2 -52 17 -52 8 0 8 3 -1 12 -7 7 -12 16
-12 22 0 5 6 1 14 -9 7 -10 11 -28 8 -39 -3 -12 -1 -18 3 -14 4 4 14 0 21 -10
9 -13 10 -20 1 -31 -10 -12 -9 -14 5 -8 13 4 15 2 11 -10 -4 -11 -3 -14 6 -9
8 6 11 2 9 -10 -2 -11 2 -18 10 -16 15 3 15 -3 0 -31 -10 -19 -9 -21 4 -9 13
10 18 10 24 1 4 -8 3 -9 -4 -5 -7 4 -12 2 -12 -3 0 -6 5 -11 10 -11 6 0 9 -6
8 -12 -2 -7 3 -12 10 -10 10 2 10 -2 1 -19 -9 -18 -9 -21 4 -16 11 4 13 0 10
-14 -3 -11 1 -21 11 -25 13 -5 14 -10 4 -27 -10 -20 -9 -21 5 -9 13 11 15 10
10 -9 -4 -14 -2 -20 4 -16 6 4 8 -3 6 -17 -3 -13 0 -27 6 -30 6 -4 11 -18 11
-32 0 -16 6 -24 18 -24 14 0 15 -2 2 -10 -9 -6 -11 -10 -3 -10 7 0 10 -7 6
-17 -5 -12 -3 -14 7 -8 7 5 11 4 8 -1 -3 -5 -1 -20 5 -34 5 -14 9 -33 8 -44
-2 -10 2 -16 7 -12 5 3 7 -5 4 -19 -3 -16 0 -25 8 -25 9 0 9 -4 -1 -17 -10
-11 -10 -14 -1 -9 8 5 12 -2 12 -23 0 -17 4 -31 9 -31 5 0 12 -7 15 -16 3 -8
2 -12 -4 -9 -6 3 -10 1 -10 -5 0 -6 7 -13 16 -17 13 -5 13 -7 2 -14 -10 -7
-10 -9 0 -9 10 0 10 -5 1 -21 -6 -12 -7 -19 -1 -15 12 7 26 -22 23 -48 -2 -10
2 -15 7 -12 6 4 8 -3 4 -16 -3 -11 -1 -19 4 -16 5 4 10 -8 11 -24 1 -17 8 -37
15 -46 7 -9 8 -13 2 -9 -15 9 6 -54 26 -79 9 -10 10 -15 3 -10 -9 5 -11 2 -7
-8 3 -9 10 -16 15 -16 6 0 5 -10 -2 -22 -9 -17 -9 -20 3 -15 12 4 14 -1 12
-24 -2 -19 1 -29 10 -29 9 0 12 -8 8 -26 -3 -17 0 -30 10 -35 10 -5 14 -18 10
-34 -2 -14 0 -25 7 -25 5 0 8 -7 4 -16 -12 -32 26 0 157 130 152 152 161 166
137 207 -9 17 -12 27 -7 24 6 -3 10 -1 10 5 0 6 -7 13 -15 16 -11 5 -12 10 -4
26 9 16 8 19 -2 13 -9 -6 -11 -2 -7 13 6 23 -7 31 -16 10 -3 -7 -3 2 0 20 2
19 1 31 -4 29 -4 -3 -8 7 -7 21 0 16 -5 26 -12 24 -7 -1 -13 2 -13 8 0 5 4 10
9 10 5 0 7 9 4 21 -4 16 -8 17 -14 7 -5 -7 -9 -8 -9 -2 0 5 6 16 13 23 10 11
9 13 -5 8 -12 -4 -15 -2 -11 9 3 7 0 14 -6 14 -6 0 -11 5 -11 11 0 5 5 7 11 3
7 -4 10 -1 7 7 -3 8 -10 13 -15 12 -5 -1 -10 4 -10 12 0 8 4 12 9 9 4 -3 5 2
2 10 -3 9 -10 13 -15 10 -5 -3 -5 6 1 20 7 19 6 25 -2 23 -7 -1 -12 11 -11 31
0 28 -2 32 -21 27 -19 -5 -19 -5 -3 5 18 11 18 12 0 27 -10 8 -12 12 -5 8 6
-3 12 -1 12 4 0 6 -4 11 -10 11 -5 0 -6 7 -3 17 4 11 3 14 -5 9 -9 -5 -9 0 -2
20 10 25 9 26 -6 13 -15 -12 -16 -12 -10 9 5 15 3 22 -6 22 -10 0 -9 3 2 10
12 8 12 10 1 10 -10 0 -11 3 -2 14 10 12 8 17 -7 25 -14 8 -18 17 -14 37 3 15
1 24 -4 21 -5 -3 -10 9 -11 26 -1 17 -9 35 -17 39 -9 5 -12 16 -8 30 3 14 2
19 -6 14 -7 -4 -12 -2 -12 3 0 6 6 11 13 11 7 1 5 6 -6 14 -11 9 -14 15 -7 18
7 2 3 15 -12 33 -12 16 -17 26 -10 22 8 -6 10 -3 6 7 -3 9 -10 13 -15 10 -9
-5 -13 9 -10 33 1 7 -8 33 -20 59 -12 25 -22 52 -22 60 0 7 -7 16 -14 18 -9 4
-11 1 -7 -6 4 -7 3 -8 -4 -4 -8 5 -9 13 -2 25 7 15 6 18 -7 17 -10 -1 -17 8
-18 23 -1 14 -7 27 -14 29 -6 2 -9 8 -5 13 3 5 -3 9 -13 10 -10 0 -13 3 -6 6
17 6 0 38 -40 76 -26 24 -28 29 -16 44 12 15 12 16 -3 10 -10 -3 -20 -1 -24 5
-4 6 -3 8 4 4 6 -4 10 1 9 13 0 11 -6 19 -12 18 -5 -1 -9 4 -8 11 2 6 -3 12
-10 12 -8 0 -7 4 3 10 13 8 13 10 -2 10 -12 0 -15 5 -11 17 5 11 3 14 -6 8
-10 -6 -11 -3 -1 15 7 13 8 20 2 16 -6 -3 -13 -2 -17 4 -3 5 0 10 7 11 7 0 4
4 -7 9 l-20 9 20 0 c12 1 16 4 9 9 -16 11 -24 52 -11 52 8 0 8 3 -1 8 -7 5
-10 15 -7 23 4 8 76 68 162 134 86 66 201 157 255 202 114 95 156 122 195 128
15 2 37 7 48 11 23 9 255 239 280 278 l18 27 -42 -5 c-57 -7 -115 -42 -241
-146 -58 -48 -168 -135 -245 -195 -278 -216 -372 -294 -486 -406 -72 -71 -113
-105 -107 -89 5 14 22 59 38 100 47 126 101 263 121 307 10 24 19 46 19 49 0
3 7 20 14 37 8 18 38 91 66 162 28 72 55 139 60 150 5 11 21 52 35 90 47 122
63 153 114 205 27 28 56 61 64 73 14 21 13 25 -1 35 -16 10 -15 11 1 6 20 -7
23 1 3 9 -8 3 -32 -7 -53 -22z m-193 -1491 c0 -5 -2 -10 -4 -10 -3 0 -8 5 -11
10 -3 6 -1 10 4 10 6 0 11 -4 11 -10z m-346 -196 c3 -8 2 -12 -4 -9 -6 3 -10
10 -10 16 0 14 7 11 14 -7z"/>
<path d="M2718 4901 c9 -16 20 -27 24 -25 4 3 -2 16 -14 29 -28 33 -31 31 -10
-4z"/>
<path d="M3066 4385 c4 -8 11 -15 16 -15 6 0 5 6 -2 15 -7 8 -14 15 -16 15 -2
0 -1 -7 2 -15z"/>
<path d="M2631 4285 c0 -13 28 -50 33 -44 3 2 -4 15 -14 29 -11 14 -20 21 -19
15z"/>
<path d="M2690 4190 c0 -5 5 -10 11 -10 5 0 7 5 4 10 -3 6 -8 10 -11 10 -2 0
-4 -4 -4 -10z"/>
<path d="M2750 4094 c0 -8 5 -12 10 -9 6 4 8 11 5 16 -9 14 -15 11 -15 -7z"/>
<path d="M5850 3860 c6 -11 15 -20 20 -20 6 0 2 9 -7 20 -10 11 -19 20 -21 20
-1 0 2 -9 8 -20z"/>
<path d="M2950 3676 c0 -2 8 -10 18 -17 15 -13 16 -12 3 4 -13 16 -21 21 -21
13z"/>
<path d="M5595 3450 c-3 -5 1 -10 10 -10 9 0 13 5 10 10 -3 6 -8 10 -10 10 -2
0 -7 -4 -10 -10z"/>
<path d="M6096 3343 c-6 -14 -5 -15 5 -6 7 7 10 15 7 18 -3 3 -9 -2 -12 -12z"/>
<path d="M595 1150 c3 -5 8 -10 11 -10 2 0 4 5 4 10 0 6 -5 10 -11 10 -5 0 -7
-4 -4 -10z"/>
<path d="M986 681 c-3 -5 2 -15 12 -22 15 -12 16 -12 5 2 -7 9 -10 19 -6 22 3
4 4 7 0 7 -3 0 -8 -4 -11 -9z"/>
<path d="M493 545 c0 -8 7 -17 15 -20 23 -8 24 0 4 18 -15 14 -19 15 -19 2z"/>
</g>
</svg>
